PathFileType	4	(X/Y/Z)	Patient4_TMGait_0pt5_02_left_24.trc.trc
DataRate	CameraRate	NumFrames	NumMarkers	Units	OrigDataRate	OrigDataStartFrame	OrigNumFrames
78.212290502793	78.212290502793	4	33	mm	78.212290502793	53	       141
Frame#	Time	Sacral			L.Shoulder			Chest			R.Shoulder			Neck			R.ASIS			L.ASIS			R.Thigh.Superior			R.Thigh.Lateral			R.Thigh.Inferior			R.Patella			L.Thigh.Superior			L.Thigh.Lateral			L.Thigh.Inferior			L.Patella			L.Shank.Superior			L.Shank.Lateral			L.Shank.Inferior			R.Shank.Superior			R.Shank.Lateral			R.Shank.Inferior			R.Heel			R.Midfoot.Superior			R.Midfoot.Lateral			R.Toe			L.Heel			L.Midfoot.Lateral			L.Midfoot.Superior			L.Toe			L.Elbow			L.Wrist			R.Elbow			R.Wrist			
		X1	Y1	Z1	X2	Y2	Z2	X3	Y3	Z3	X4	Y4	Z4	X5	Y5	Z5	X6	Y6	Z6	X7	Y7	Z7	X8	Y8	Z8	X9	Y9	Z9	X10	Y10	Z10	X11	Y11	Z11	X12	Y12	Z12	X13	Y13	Z13	X14	Y14	Z14	X15	Y15	Z15	X16	Y16	Z16	X17	Y17	Z17	X18	Y18	Z18	X19	Y19	Z19	X20	Y20	Z20	X21	Y21	Z21	X22	Y22	Z22	X23	Y23	Z23	X24	Y24	Z24	X25	Y25	Z25	X26	Y26	Z26	X27	Y27	Z27	X28	Y28	Z28	X29	Y29	Z29	X30	Y30	Z30	X31	Y31	Z31	X32	Y32	Z32	X33	Y33	Z33	

53	31.254857142857	510.449422298145	1006.958158039061	437.901365309861	688.247545104771	1433.670608253208	251.880751160026	791.962521877386	1366.387352448937	413.985345233549	706.435219139413	1443.579568383459	587.083915167569	688.092564565363	1496.165488969642	402.179080579929	732.994776502647	943.066549645547	558.429982771463	729.822654331198	961.639212701519	283.936202593725	814.539832827685	769.205861968910	539.609362744691	766.637130142631	651.802403356255	613.197173782162	861.798381143300	610.056270732498	541.253391065287	876.371898733988	495.692997702545	565.309079475983	776.020779607629	750.149093514214	316.961272514978	688.042752929620	634.847720779652	258.888879998180	769.381809265341	556.576841968084	324.932976722939	768.349248523680	485.846173907332	336.507836287025	738.727712078862	413.740914643307	328.229701508126	646.977898250566	302.256789003750	276.602543596362	690.072704044428	190.700930820932	350.317042238746	795.267272201186	424.111961951895	567.118364456557	666.839270623910	393.139773989931	616.412694905742	649.688459716925	284.530534494873	569.564180120809	453.317700167391	253.643190038849	522.743236584492	599.250685704552	157.830024182460	580.250765831728	490.024399432993	184.590550145583	602.287001108779	631.919563339090	33.128896367204	615.403716871852	555.373502981900	37.694836268416	391.158362423722	629.035034241097	34.634416354448	309.775649730032	712.724065900836	95.428173320970	336.708870736105	840.942156525352	41.925328516741	306.816778212466	645.017052421584	1088.791959587838	123.423481881370	883.149647142407	993.822059342581	118.275809796127	679.539885464469	1096.277320475638	703.106983750587	793.492028401695	861.106940116946	700.437198910371	
54	31.267642857143	510.224582726116	1007.431283533217	436.096405697928	690.416935922261	1434.417401229694	251.208396109698	792.774684844706	1366.467049987540	413.893290960640	706.253863589818	1443.570885620575	586.472254765148	689.383326576728	1496.574821830447	401.637584529999	732.387886449423	944.145670486998	557.777947886891	730.354262516709	961.567459582318	282.640088742185	816.593091843236	773.154057138752	538.487481461618	771.148976316260	655.053893765204	612.334056625641	867.051168301004	615.136351055086	540.312357519282	884.221028927555	501.118698408316	564.509130602329	774.258326274177	749.251454930596	316.103551173821	684.955106214503	634.809214611387	258.148140546173	765.316807912369	555.749267553676	324.273923669115	763.521843659454	485.191792232323	335.999155117614	733.712365900850	413.394124489865	327.754828035819	641.570698027647	302.225834800036	276.178679994426	684.147113708165	190.565376208077	350.072631508868	804.765134986625	427.769903354041	566.257989320624	677.148201682607	393.421096012162	615.233319040745	662.954441734032	284.312058274127	568.483182647762	467.352979584162	246.994958386308	521.381782682663	616.439136494446	156.931706131311	579.269833877317	506.487811001577	179.895422453004	601.275556008717	653.289345892785	33.525225505238	615.104851885071	548.907112778622	37.787780896243	391.114262546716	622.608439528790	34.662043189564	309.737522981613	706.352183730261	95.395291451633	336.619886399143	834.541920231255	41.739719298767	306.759821197384	650.351287093491	1090.321951548238	120.587050326723	894.286342241134	1013.693923769135	115.096160568947	672.342197653803	1097.493837761083	703.582960358388	772.990675810536	856.279984578381	708.738808787825	
55	31.280428571429	510.070632347764	1008.021787026887	434.444005403795	692.864860269166	1435.195980931128	250.653431518374	793.747506781141	1366.556496670797	413.952786677222	706.223522354275	1443.666866087584	585.950323801433	690.840467948353	1497.024044885294	401.202171965499	731.778957647229	945.256531591525	557.285854033675	730.830884491695	961.462363573414	281.521725891901	818.253567964141	776.944361276223	537.378515541256	775.109977519862	658.196118910472	611.480662165780	871.521961688724	619.911083494592	539.296771114673	891.151656791833	506.497234095894	563.688455381017	772.349839576993	748.364926332982	315.458315137639	681.700900300451	634.840878775206	257.503246663556	761.022927437011	554.966005270899	323.722754139494	758.433619123341	484.591912988580	335.557775831168	728.491985699790	413.137894765884	327.318213977595	635.999969403755	302.252574111906	275.790949772947	678.141660051924	190.487754290538	349.821487537307	813.855879827870	431.180995212157	565.433695419205	687.524521671903	392.555816970521	614.295938888178	677.013210157248	282.966046348487	567.595173701425	482.521957639931	237.724558695162	520.637631741836	635.403894612170	154.738101873849	578.424011519364	524.760412726215	172.967300504944	600.739248092963	677.594004749557	33.455293152426	614.770719289242	542.442762917308	37.905039292125	391.066365693286	616.182834878804	34.697153670950	309.706726021016	699.985259891330	95.371696765300	336.517835208174	828.141749278609	41.548404818726	306.701186528452	655.669529193826	1091.894248396369	117.972118850692	903.930702334717	1033.448745601576	112.201590226567	665.101512884335	1099.065774964703	704.176112811532	752.729054772440	853.052699559349	716.733885694271	
56	31.293214285714	509.987321080398	1008.701974650877	432.950516647038	695.564651112745	1435.965990689188	250.219097756985	794.876219166078	1366.625075678027	414.157403432306	706.348232806933	1443.828869775206	585.524237707520	692.452341865670	1497.481130880876	400.872981696613	731.172131091987	946.342274454297	556.930689562444	731.265927682645	961.357213652322	280.645200557140	819.524007235649	780.474005184841	536.284206415937	778.501363061708	661.125413915640	610.660038473416	875.173016648310	624.231971768681	538.220205428076	897.090558376983	511.696144960993	562.864020427441	770.329015974017	747.485612296278	315.006743564761	678.318810140138	634.930268886313	256.939972178074	756.549863332460	554.223284244206	323.253632509854	753.135236362708	484.039567692508	335.166365768463	723.115009017542	412.956116226198	326.907385975046	630.300840546617	302.329560045326	275.433400316254	672.075601363927	190.458793402384	349.561147481097	822.468510981500	434.272767380519	564.668738962137	697.971359815209	390.574315804177	613.644969177888	691.823897868002	280.601131938897	566.948848111682	498.980592463440	226.154424039857	520.529337107901	656.022381438731	151.448368757646	577.793725108912	544.832716620352	164.140374029944	600.715715613764	704.465302054327	33.036267435403	614.494259901975	535.986984765205	38.044534143718	391.013543869886	609.759607827010	34.738376654884	309.682462081624	693.623877380673	95.355926754589	336.404160567936	821.742083201018	41.354160044078	306.640491223992	660.962662934148	1093.462456741316	115.552561174120	912.140286828003	1052.835041283019	109.631716151892	657.804382450835	1100.947144941779	704.862014217287	732.919857606260	851.279756497776	724.298570426505	
